<svg width="24" height="24" viewBox="0 0 24 24" fill="none" xmlns="http://www.w3.org/2000/svg">
<g clip-path="url(#clip0_1571_2126)">
<path d="M16.9186 14.6099C16.4286 15.0499 15.6086 15.0599 14.6386 14.6899C13.3586 14.2299 11.8286 13.1199 10.4486 11.5799C9.07863 10.0399 8.1486 8.38992 7.8286 7.05992C7.5786 6.05992 7.68861 5.24992 8.17861 4.80992C9.33861 3.77992 12.2286 5.12991 14.6486 7.82991C17.0686 10.5299 18.0786 13.5699 16.9186 14.5999V14.6099Z" stroke="#232527" stroke-width="1.5" stroke-miterlimit="10" stroke-linecap="round"/>
<path d="M7.85945 5.29004L3.16948 15.8C2.50948 17.27 3.90948 18.83 5.44948 18.35L16.4295 14.88" stroke="#232527" stroke-width="1.5" stroke-miterlimit="10" stroke-linecap="round"/>
<path d="M6.63867 18.0797L7.16867 19.7697C7.45867 20.6897 8.45866 21.2098 9.37866 20.9198L11.0687 20.3898C11.9887 20.0998 12.5087 19.0997 12.2187 18.1797L11.6887 16.4897" stroke="#232527" stroke-width="1.5" stroke-miterlimit="10" stroke-linecap="round"/>
<path d="M20.1398 3.93018L19.2598 4.82019" stroke="#232527" stroke-width="1.5" stroke-miterlimit="10" stroke-linecap="round"/>
<path d="M15.5995 3L15.1895 3.89999" stroke="#232527" stroke-width="1.5" stroke-miterlimit="10" stroke-linecap="round"/>
<path d="M21.0002 8.3999L20.1602 8.84991" stroke="#232527" stroke-width="1.5" stroke-miterlimit="10" stroke-linecap="round"/>
</g>
<defs>
<clipPath id="clip0_1571_2126">
<rect width="24" height="24" fill="white"/>
</clipPath>
</defs>
</svg>
