<svg width="99" height="17" viewBox="0 0 99 17" fill="none" xmlns="http://www.w3.org/2000/svg">
<path fill-rule="evenodd" clip-rule="evenodd" d="M93.7459 4.66468C93.7463 4.66468 93.7466 4.66468 93.747 4.66468H93.7459C94.1902 5.21287 94.4124 5.96702 94.4124 6.9137C94.4124 8.80253 93.5309 9.88186 91.786 10.1337C91.0305 10.2416 90.6527 10.4575 90.6527 10.7993C90.6527 10.9972 90.7606 11.1411 90.9765 11.231C91.1924 11.339 91.786 11.5009 92.7214 11.7527C94.1785 12.1485 95.2399 12.5622 95.8335 13.0479C95.9054 13.1198 96.0134 13.2458 96.0134 13.2458H94.6103C94.0706 12.9579 93.405 12.7241 92.5775 12.5082C91.4622 12.2204 90.7606 11.9866 90.4728 11.8426C90.167 11.6987 90.0231 11.5009 90.0231 11.249C90.0231 10.9972 90.185 10.6734 90.5088 10.2776C89.8072 10.5834 89.4474 10.9972 89.4474 11.5188C89.4474 11.8247 89.5734 12.0945 89.8432 12.2924C90.113 12.5082 90.7247 12.7601 91.714 13.0479C91.8819 13.0959 92.0338 13.1438 92.1858 13.1918C92.2617 13.2158 92.3377 13.2398 92.4156 13.2638H89.9152C89.0337 12.85 88.584 12.3283 88.584 11.6987C88.584 10.9252 89.2136 10.2956 90.4728 9.8099C89.3575 9.36018 88.7998 8.38878 88.7998 6.87772C88.7998 5.97456 89.0247 5.23629 89.4744 4.67659C89.3454 4.6725 89.2183 4.6317 89.1059 4.55675C89.0111 4.49357 88.9302 4.41305 88.8693 4.32129C88.3618 5.07061 88.1158 5.93396 88.1158 6.89567H88.0978C88.0978 7.77712 88.2957 8.56863 88.7095 9.25221C88.2777 9.14428 87.918 8.85645 87.6481 8.38874C87.3783 7.93902 87.2344 7.43534 87.2344 6.91366C87.2344 6.26606 87.4143 5.70841 87.7381 5.22271C88.0372 4.77399 88.3978 4.46345 88.8339 4.26274C88.7779 4.15982 88.7461 4.04546 88.7461 3.92714V2.57797C88.7461 2.32613 88.872 2.07428 89.1059 1.94836C89.3217 1.80445 89.5916 1.80445 89.8254 1.91239L91.6063 2.79384L93.4052 1.91239C93.6391 1.80445 93.9089 1.80445 94.1248 1.94836C94.3406 2.09227 94.4845 2.32613 94.4845 2.57797V3.92714C94.4845 3.98611 94.4776 4.04508 94.4641 4.10244C94.7462 4.2457 94.9653 4.40413 95.1136 4.59288C95.5453 4.03522 95.995 3.76539 96.4447 3.76539C96.6786 3.76539 96.9844 3.85534 97.3262 4.05321C97.686 4.25109 97.9558 4.34104 98.1177 4.34104C98.3875 4.34104 98.5854 4.12517 98.7293 3.71143L98.9992 3.76539C98.9092 4.64685 98.6214 5.07858 98.0997 5.07858C97.8479 5.07858 97.5241 4.97064 97.1463 4.77277H97.1283C96.7685 4.57489 96.4807 4.48495 96.2828 4.48495C95.9051 4.48495 95.6173 4.64685 95.4014 4.97065L95.4374 5.0426C95.5813 4.98863 95.6892 4.95266 95.7612 4.95266C95.959 4.95266 96.2828 5.11456 96.7146 5.40238C97.0384 5.61824 97.3622 5.72618 97.668 5.72618C97.8838 5.72618 98.0817 5.67221 98.2436 5.56428L98.3336 5.67221C98.0457 6.04998 97.704 6.24785 97.3262 6.24785C97.0743 6.24785 96.7326 6.10394 96.3548 5.81612C96.085 5.60025 95.8511 5.45634 95.6532 5.40238C95.8871 5.90606 95.995 6.40975 95.995 6.87746C95.995 8.17266 95.4733 9.01814 94.43 9.43188C94.8977 8.7483 95.1136 7.90283 95.1136 6.89545C95.1136 5.86645 94.8703 4.99961 94.3956 4.2832C94.3349 4.39593 94.2438 4.49265 94.1248 4.55675C94.0038 4.62589 93.8828 4.66181 93.7458 4.66451C93.7458 4.66457 93.7459 4.66462 93.7459 4.66468ZM93.729 3.94513L92.3439 3.24356L93.765 2.57797L93.729 3.94513ZM89.4836 3.90915L89.5196 2.54199L90.9048 3.24356L89.4836 3.90915ZM90.2569 4.93492C89.8792 5.36666 89.6993 6.01425 89.6993 6.87772C89.6993 8.55068 90.3469 9.37817 91.6421 9.37817C92.2177 9.37817 92.6854 9.1623 93.0452 8.73057C93.387 8.29884 93.5669 7.68722 93.5669 6.87772C93.5669 6.03224 93.387 5.38464 93.0272 4.95291C92.6495 4.52118 92.2177 4.30531 91.6601 4.30531C91.1024 4.30531 90.6347 4.52118 90.2569 4.93492Z" fill="#1D1D1B"/>
<path d="M85.0045 10.1336C84.9325 9.88177 84.8965 9.45004 84.8965 8.8564V6.15808C84.8965 2.36243 80.939 3.33383 78.9602 4.30523L79.0322 3.74757C79.0322 3.74757 78.2407 3.80154 77.8269 3.80154C76.9455 3.80154 75.3984 3.6936 75.3984 3.6936V3.87349C75.9201 4.0174 76.2439 4.25126 76.4238 4.57506C76.5857 4.91685 76.6577 5.43852 76.6577 6.14009V8.73048C76.6577 9.77383 76.5497 10.4214 76.3339 10.7093C76.118 10.9971 75.8661 11.177 75.5423 11.2849V11.4828C75.6323 11.4828 77.1613 11.3748 77.8089 11.3748C78.7084 11.3748 80.1835 11.4828 80.2015 11.4828V11.2849C79.374 11.087 78.9602 10.4214 78.9602 9.30612V4.95282C79.9316 4.48511 80.6872 4.25126 81.2448 4.25126C81.7665 4.25126 82.1443 4.39517 82.3421 4.68299C82.54 4.97081 82.63 5.45651 82.63 6.14009V9.504C82.63 9.86378 82.612 10.4754 82.558 11.3569C83.6913 11.195 85.3283 11.3389 86.2457 11.4288V11.2309C85.9399 11.177 85.6701 11.051 85.4362 10.8352C85.2024 10.6373 85.0584 10.4034 84.9865 10.1336H85.0045Z" fill="#1D1D1B"/>
<path d="M69.643 3.65771V3.8376C70.1287 3.94554 70.4525 4.1614 70.6144 4.46721C70.7763 4.77302 70.8843 5.25872 70.8843 5.92431V10.0438C70.0208 10.5115 69.3013 10.7453 68.7076 10.7453C68.114 10.7453 67.7182 10.6014 67.5024 10.3316C67.3045 10.0797 67.2145 9.63001 67.2145 8.98241V4.91693C67.2145 4.91693 67.1966 4.21537 67.3045 3.72967C66.477 3.80163 65.5416 3.80163 63.6348 3.65771V3.8376C64.1564 3.98151 64.4982 4.21537 64.6961 4.53917C64.876 4.86297 64.9659 5.38464 64.9659 6.12219V9.01839C64.9659 11.4289 66.477 11.4289 68.4378 11.4289C69.1753 11.4289 70.0028 11.195 70.9023 10.7093C70.9023 10.8173 70.9023 11.0511 70.8843 11.3569C71.0821 11.321 71.8377 11.303 72.0895 11.303C72.899 11.303 74.5 11.4289 74.5 11.4289V11.231C74.5 11.231 73.6546 10.9252 73.4747 10.5834C73.2768 10.2416 73.1868 9.70197 73.1868 8.96442V6.05023C73.1868 5.34867 73.2768 4.82699 73.4747 4.50319C73.6725 4.17939 74.0143 3.96353 74.5 3.8376V3.65771C74.5 3.65771 72.8451 3.78364 72.0895 3.78364C71.334 3.78364 69.715 3.6757 69.661 3.65771H69.643Z" fill="#1D1D1B"/>
<path d="M61.313 9.0715L57.1216 4.43037L60.1797 2.00188C61.3489 1.10244 62.4283 0.508803 63.4177 0.256959V0.059082C63.4177 0.059082 62.3023 0.185004 61.259 0.185004C60.2156 0.185004 58.9384 0.059082 58.9384 0.059082V0.256959C59.3882 0.436848 59.622 0.670703 59.622 0.940536C59.622 1.30031 59.2083 1.804 58.3808 2.4516L54.9089 5.22188V3.27909C54.9089 2.07383 54.9989 1.30031 55.1788 0.958524C55.3407 0.598747 55.7004 0.364892 56.2221 0.256959V0.059082C56.2221 0.059082 54.765 0.185004 53.6677 0.185004C52.5704 0.185004 51.1133 0.059082 51.1133 0.059082V0.256959C51.617 0.40087 51.9408 0.616736 52.1207 0.904558C52.3005 1.21037 52.3905 1.67808 52.3905 2.2897V9.26937C52.3905 10.4027 51.9588 11.0503 51.1133 11.2302V11.428C51.1133 11.428 52.7143 11.3021 53.6677 11.3021C54.6211 11.3021 56.2041 11.428 56.2221 11.428V11.2302C55.7184 11.0862 55.3766 10.8704 55.1968 10.5826C54.9989 10.2947 54.9089 9.863 54.9089 9.26937V5.56367L60.0717 11.3021C60.0717 11.3021 63.2558 11.3381 64.2271 11.428V11.2302C63.5796 11.2122 62.6261 10.4926 61.3489 9.0715H61.313Z" fill="#1D1D1B"/>
<path d="M47.3716 9.0715L43.1802 4.43037L46.2383 2.00188C47.4075 1.10244 48.4869 0.508803 49.4762 0.256959V0.059082C49.4762 0.059082 48.3609 0.185004 47.3176 0.185004C46.2742 0.185004 44.997 0.059082 44.997 0.059082V0.256959C45.4467 0.436848 45.6806 0.670703 45.6806 0.940536C45.6806 1.30031 45.2669 1.804 44.4394 2.4516L40.9675 5.22188V3.27909C40.9675 2.07383 41.0575 1.30031 41.2374 0.958524C41.3993 0.598747 41.759 0.364892 42.2807 0.256959V0.059082C42.2807 0.059082 40.8236 0.185004 39.7263 0.185004C38.629 0.185004 37.1719 0.059082 37.1719 0.059082V0.256959C37.6756 0.40087 37.9994 0.616736 38.1793 0.904558C38.3591 1.21037 38.4491 1.67808 38.4491 2.2897V9.26937C38.4491 10.4027 38.0174 11.0503 37.1719 11.2302V11.428C37.1719 11.428 38.7729 11.3021 39.7263 11.3021C40.6797 11.3021 42.2627 11.428 42.2807 11.428V11.2302C41.777 11.0862 41.4352 10.8704 41.2553 10.5826C41.0575 10.2947 40.9675 9.863 40.9675 9.26937V5.56367L46.1303 11.3021C46.1303 11.3021 49.3143 11.3381 50.2857 11.428V11.2302C49.6381 11.2122 48.6847 10.4926 47.4075 9.0715H47.3716Z" fill="#1D1D1B"/>
<path fill-rule="evenodd" clip-rule="evenodd" d="M30.7183 11.4942L30.7183 11.4942C30.2627 11.3791 29.9548 11.3012 29.8144 11.231C29.5985 11.1411 29.4906 10.9972 29.4906 10.7993C29.4906 10.4575 29.8684 10.2416 30.6239 10.1337C32.3688 9.88186 33.2503 8.80253 33.2503 6.9137C33.2503 5.87034 32.9804 5.06085 32.4408 4.50319C31.9011 3.94554 31.2175 3.65771 30.426 3.65771C29.6345 3.65771 28.9869 3.94554 28.4472 4.52118C27.9076 5.09682 27.6377 5.88833 27.6377 6.87772C27.6377 8.38878 28.1954 9.36018 29.3107 9.8099C28.0515 10.2956 27.4219 10.9252 27.4219 11.6987C27.4219 12.3283 27.8716 12.85 28.753 13.2638H31.2535C31.1755 13.2398 31.0996 13.2158 31.0236 13.1918C30.8717 13.1438 30.7198 13.0959 30.5519 13.0479C29.5625 12.7601 28.9509 12.5082 28.6811 12.2924C28.4113 12.0945 28.2853 11.8247 28.2853 11.5188C28.2853 10.9972 28.6451 10.5834 29.3467 10.2776C29.0229 10.6734 28.861 10.9972 28.861 11.249C28.861 11.5009 29.0049 11.6987 29.3107 11.8426C29.5985 11.9866 30.3001 12.2204 31.4154 12.5082C32.2429 12.7241 32.9085 12.9579 33.4481 13.2458H34.8513C34.8513 13.2458 34.7433 13.1198 34.6714 13.0479C34.0777 12.5622 33.0344 12.1125 31.5773 11.7167C31.2504 11.6287 30.963 11.5561 30.7183 11.4942ZM28.5372 6.87772C28.5372 6.01425 28.7171 5.36666 29.0948 4.93492C29.4726 4.52118 29.9403 4.30531 30.498 4.30531C31.0556 4.30531 31.4874 4.52118 31.8651 4.95291C32.2249 5.38464 32.4048 6.03224 32.4048 6.87772C32.4048 7.68722 32.2249 8.29884 31.8831 8.73057C31.5233 9.1623 31.0556 9.37817 30.48 9.37817C29.1848 9.37817 28.5372 8.55068 28.5372 6.87772ZM26.9537 6.89567C26.9537 5.88829 27.2236 4.98885 27.7812 4.21533C27.2955 4.41321 26.8998 4.73701 26.576 5.22271C26.2522 5.70841 26.0723 6.26606 26.0723 6.91366C26.0723 7.43534 26.2162 7.93902 26.486 8.38874C26.7558 8.85645 27.1156 9.14428 27.5474 9.25221C27.1336 8.56863 26.9357 7.77712 26.9357 6.89567H26.9537ZM34.8329 6.85902C34.8149 8.15421 34.3112 8.99969 33.2679 9.41343C33.7356 8.72986 33.9515 7.88438 33.9515 6.87701C33.9515 5.68974 33.6277 4.71834 32.998 3.94482C34.4192 4.35857 34.8329 6.17544 34.8329 6.85902Z" fill="#1D1D1B"/>
<path d="M23.788 9.57563V6.31965C23.788 3.94513 22.151 3.67529 20.3341 3.67529C18.5172 3.67529 17.6178 4.73663 17.3479 5.18636L17.6178 5.4382C18.2654 4.73664 19.0569 4.37686 19.9923 4.37686C20.6039 4.37686 20.9997 4.52077 21.2156 4.7906C21.4134 5.07842 21.5214 5.47418 21.5214 5.97787V7.09317C21.2875 7.02122 21.0357 7.00323 20.8018 7.00323C18.7871 6.94926 16.7363 7.47094 16.7363 9.28781C16.7363 11.1047 18.6791 11.4285 20.2621 11.4285C20.7478 11.4285 21.1616 11.2486 21.5214 10.8708L21.4854 11.4285C22.4748 11.0867 25.0112 11.4285 25.0112 11.4285V11.2306C24.4895 11.1587 24.1657 10.9968 24.0038 10.7629C23.8419 10.529 23.77 10.1333 23.77 9.57563H23.788ZM21.5214 10.4211C21.1976 10.655 20.8738 10.7809 20.532 10.7809C20.1542 10.7809 19.8304 10.637 19.5606 10.3312C19.3087 10.0433 19.1648 9.70156 19.1648 9.3058C19.1648 8.85608 19.3267 8.47832 19.6325 8.11854C19.9383 7.77675 20.3701 7.61485 20.9277 7.61485C21.0896 7.61485 21.2875 7.61485 21.5214 7.65083V10.4031V10.4211Z" fill="#1D1D1B"/>
<path d="M13.9128 10.8832C13.8048 10.4874 13.7509 9.80386 13.7509 8.83247L13.7514 2.38005C13.7514 1.69648 13.8414 1.19279 14.0392 0.868991C14.2371 0.545192 14.6149 0.347314 15.1546 0.239381V0.0415039C15.1546 0.0415039 13.3557 0.149437 12.5102 0.167426C11.6647 0.167426 9.86583 0.0415039 9.86583 0.0415039V0.275359C10.3875 0.383292 10.7653 0.599158 10.9632 0.922957C11.161 1.24676 11.251 1.78642 11.251 2.52396L11.2504 9.40811C11.2504 10.5594 11.1425 11.4948 10.9086 12.2324C10.6748 12.9699 10.261 13.6535 9.6674 14.2471C9.07376 14.8767 8.31823 15.4164 7.38281 15.8661V16.046C7.85052 15.974 8.91186 15.5963 8.96583 15.5603C10.6568 14.8228 11.6282 13.7434 12.2398 13.0239C12.6535 12.5382 12.9953 12.2144 13.2832 12.0705C13.571 11.9265 13.9308 11.8726 14.4165 11.8726C14.1646 11.6027 13.9847 11.261 13.8948 10.8652L13.9128 10.8832Z" fill="#1D1D1B"/>
<path d="M7.18425 10.8832C7.07632 10.4874 7.02235 9.80386 7.02235 8.83247L7.02291 2.38005C7.02291 1.69648 7.11285 1.19279 7.31073 0.868991C7.50861 0.545192 7.88637 0.347314 8.42604 0.239381V0.0415039C8.42604 0.0415039 6.62715 0.149437 5.78168 0.167426C4.9362 0.167426 3.13732 0.0415039 3.13732 0.0415039V0.275359C3.65899 0.383292 4.03676 0.599158 4.23464 0.922957C4.43252 1.24676 4.52246 1.78642 4.52246 2.52396L4.5219 9.40811C4.5219 10.5594 4.41397 11.4948 4.18011 12.2324C3.94626 12.9699 3.53251 13.6535 2.93888 14.2471C2.34525 14.8767 1.58972 15.4164 0.654297 15.8661V16.046C1.12201 15.974 2.18335 15.5963 2.23732 15.5603C3.92827 14.8228 4.89966 13.7434 5.51129 13.0239C5.92503 12.5382 6.26682 12.2144 6.55464 12.0705C6.84246 11.9265 7.20224 11.8726 7.68794 11.8726C7.43609 11.6027 7.2562 11.261 7.16626 10.8652L7.18425 10.8832Z" fill="#1D1D1B"/>
</svg>
