<svg width="180" height="24" viewBox="0 0 180 24" fill="none" xmlns="http://www.w3.org/2000/svg">
<g clip-path="url(#clip0_659_20231)">
<rect x="0.5" y="0.5" width="23" height="23" rx="5.5" fill="#A2BB81" stroke="#CCCCCC"/>
<path d="M9.00016 16.1698L4.83016 11.9998L3.41016 13.4098L9.00016 18.9998L21.0002 6.99984L19.5902 5.58984L9.00016 16.1698Z" fill="white"/>
</g>
<path d="M44.65 5.61H45.895V15.63H44.65V5.61ZM41.725 9.795H44.89V10.83H41.725V9.795ZM40.465 6.66H41.77C41.77 10.155 39.31 12.81 35.485 14.085L34.945 13.08C38.26 11.97 40.465 9.84 40.465 7.155V6.66ZM35.62 6.66H41.275V7.68H35.62V6.66ZM37.33 17.85H46.24V18.87H37.33V17.85ZM37.33 14.625H38.575V18.36H37.33V14.625ZM57.8188 5.61H59.0638V13.725H57.8188V5.61ZM58.7188 9.105H61.0738V10.155H58.7188V9.105ZM54.0688 6.6H55.4038C55.4038 10.08 52.9888 12.615 49.0738 13.77L48.5488 12.765C51.9988 11.745 54.0688 9.705 54.0688 7.17V6.6ZM49.1488 6.6H54.7738V7.635H49.1488V6.6ZM54.8188 13.89C57.5038 13.89 59.2138 14.88 59.2138 16.515C59.2138 18.15 57.5038 19.14 54.8188 19.14C52.1188 19.14 50.3938 18.15 50.3938 16.515C50.3938 14.88 52.1188 13.89 54.8188 13.89ZM54.8188 14.88C52.8688 14.88 51.6238 15.495 51.6238 16.515C51.6238 17.535 52.8688 18.15 54.8188 18.15C56.7688 18.15 58.0138 17.535 58.0138 16.515C58.0138 15.495 56.7688 14.88 54.8188 14.88ZM71.5277 5.61H72.7727V19.17H71.5277V5.61ZM72.4727 11.175H74.9927V12.225H72.4727V11.175ZM62.2727 7.77H70.2677V8.79H62.2727V7.77ZM66.3227 9.915C68.2427 9.915 69.6227 11.205 69.6227 13.035C69.6227 14.865 68.2427 16.155 66.3227 16.155C64.4177 16.155 63.0227 14.865 63.0227 13.035C63.0227 11.205 64.4177 9.915 66.3227 9.915ZM66.3227 10.95C65.0927 10.95 64.2077 11.805 64.2077 13.035C64.2077 14.25 65.0927 15.12 66.3227 15.12C67.5527 15.12 68.4377 14.25 68.4377 13.035C68.4377 11.805 67.5527 10.95 66.3227 10.95ZM65.6777 5.775H66.9227V8.235H65.6777V5.775ZM85.3115 5.595H86.5715V19.185H85.3115V5.595ZM86.2715 10.95H88.7915V12H86.2715V10.95ZM76.7165 14.76H77.7815C80.2865 14.76 82.0415 14.67 84.0665 14.295L84.2015 15.345C82.1165 15.735 80.3315 15.81 77.7815 15.81H76.7165V14.76ZM76.7165 6.915H83.0165V7.935H77.9465V15.225H76.7165V6.915Z" fill="#777777"/>
<defs>
<clipPath id="clip0_659_20231">
<rect width="24" height="24" fill="white"/>
</clipPath>
</defs>
</svg>
