<svg width="180" height="24" viewBox="0 0 180 24" fill="none" xmlns="http://www.w3.org/2000/svg">
<g clip-path="url(#clip0_659_20230)">
<rect x="0.5" y="0.5" width="23" height="23" rx="5.5" fill="white" stroke="#CCCCCC"/>
</g>
<path d="M38.2 6.99H39.22V8.085C39.22 10.56 37.69 12.675 35.425 13.515L34.78 12.525C36.805 11.805 38.2 10.005 38.2 8.085V6.99ZM38.44 6.99H39.445V8.085C39.445 9.825 40.765 11.52 42.73 12.21L42.1 13.2C39.895 12.39 38.44 10.35 38.44 8.085V6.99ZM41.995 9.135H45.01V10.17H41.995V9.135ZM35.17 6.54H42.415V7.545H35.17V6.54ZM36.85 14.46H45.895V19.17H44.65V15.48H36.85V14.46ZM44.65 5.61H45.895V13.725H44.65V5.61ZM50.1088 6.255H58.8388V7.275H50.1088V6.255ZM48.5488 11.31H60.8338V12.33H48.5488V11.31ZM58.0288 6.255H59.2438V7.185C59.2438 8.295 59.2438 9.735 58.8238 11.715L57.6088 11.58C58.0288 9.645 58.0288 8.265 58.0288 7.185V6.255ZM49.8538 14.355H59.3338V19.215H58.0888V15.36H49.8538V14.355ZM65.7977 6.99H66.8177V8.085C66.8177 10.56 65.2877 12.675 63.0227 13.515L62.3777 12.525C64.4027 11.805 65.7977 10.005 65.7977 8.085V6.99ZM66.0377 6.99H67.0427V8.085C67.0427 9.825 68.3627 11.52 70.3277 12.21L69.6977 13.2C67.4927 12.39 66.0377 10.35 66.0377 8.085V6.99ZM69.5927 9.135H72.6077V10.17H69.5927V9.135ZM62.7677 6.54H70.0127V7.545H62.7677V6.54ZM64.4477 14.46H73.4927V19.17H72.2477V15.48H64.4477V14.46ZM72.2477 5.61H73.4927V13.725H72.2477V5.61ZM85.9865 5.595H87.2315V19.185H85.9865V5.595ZM80.0765 6.645C82.0865 6.645 83.5265 8.49 83.5265 11.37C83.5265 14.265 82.0865 16.11 80.0765 16.11C78.0815 16.11 76.6415 14.265 76.6415 11.37C76.6415 8.49 78.0815 6.645 80.0765 6.645ZM80.0765 7.77C78.7565 7.77 77.8265 9.18 77.8265 11.37C77.8265 13.575 78.7565 15.015 80.0765 15.015C81.4115 15.015 82.3265 13.575 82.3265 11.37C82.3265 9.18 81.4115 7.77 80.0765 7.77ZM99.1103 5.595H100.37V19.185H99.1103V5.595ZM100.07 10.95H102.59V12H100.07V10.95ZM90.5153 14.76H91.5803C94.0853 14.76 95.8403 14.67 97.8653 14.295L98.0003 15.345C95.9153 15.735 94.1303 15.81 91.5803 15.81H90.5153V14.76ZM90.5153 6.915H96.8153V7.935H91.7453V15.225H90.5153V6.915Z" fill="#777777"/>
<defs>
<clipPath id="clip0_659_20230">
<rect width="24" height="24" fill="white"/>
</clipPath>
</defs>
</svg>
