<svg width="57" height="70" viewBox="0 0 57 70" fill="none" xmlns="http://www.w3.org/2000/svg">
<path fill-rule="evenodd" clip-rule="evenodd" d="M25.2893 2.87994L19.5294 8.63981L13.7695 2.87994L16.6495 0H22.4093L25.2893 2.87994ZM10.2418 13.9981C6.02424 13.9981 2.60522 17.4171 2.60522 21.6347H5.65986C5.65986 19.1041 7.71127 17.0527 10.2418 17.0527H13.9278V50.0103L21.9512 41.9868V49.1264C21.9512 58.9673 13.9735 66.945 4.13254 66.945L0.929688 69.9997H4.13254C15.6606 69.9997 25.0059 60.6544 25.0059 49.1264V38.9321L33.4544 30.4834L52.6098 49.6388H56.9297L35.6144 28.3235L49.9396 13.9981L45.6197 13.9983L25.0059 34.6122V13.9981H10.2418ZM16.9824 42.6357V17.0527H21.9512V37.6669L16.9824 42.6357Z" fill="white"/>
</svg>
