<svg width="180" height="101" viewBox="0 0 180 101" fill="none" xmlns="http://www.w3.org/2000/svg">
<path fill-rule="evenodd" clip-rule="evenodd" d="M30.6852 0L34.7994 4.11419L26.571 12.3426L18.3426 4.11419L22.4568 0H30.6852ZM13.303 19.9972C7.27793 19.9972 2.39362 24.8815 2.39362 30.9066H6.75739C6.75739 27.2916 9.68797 24.361 13.303 24.361H18.5687V71.4433L30.0308 59.9811V70.1805C30.0308 84.2391 18.6341 95.6358 4.5755 95.6358L0 99.9995H4.5755C21.0441 99.9995 34.3945 86.6491 34.3945 70.1805V55.6173L46.4639 43.5478L73.8287 70.9126H80L49.5495 40.4621L70.0142 19.9972L63.8429 19.9975L34.3945 49.446V19.9972H13.303ZM22.9325 60.9081V24.361H30.0308V53.8098L22.9325 60.9081Z" fill="black"/>
<path fill-rule="evenodd" clip-rule="evenodd" d="M166.391 83.7643C165.749 84.5639 165.428 85.6186 165.428 86.9088C165.428 89.0675 166.224 90.4552 167.818 91.0976C166.019 91.7915 165.119 92.6909 165.119 93.796C165.119 94.6954 165.762 95.4407 167.021 96.0317H170.593C170.482 95.9975 170.373 95.9632 170.265 95.9289L170.265 95.9289C170.048 95.8604 169.831 95.7919 169.591 95.7233C168.178 95.3122 167.304 94.9524 166.918 94.644C166.533 94.3613 166.353 93.9759 166.353 93.539C166.353 92.7937 166.867 92.2027 167.869 91.7658C167.407 92.3312 167.175 92.7937 167.175 93.1535C167.175 93.5133 167.381 93.796 167.818 94.0016C168.229 94.2071 169.231 94.5412 170.824 94.9524C172.007 95.2608 172.957 95.5948 173.728 96.006H175.733C175.733 96.006 175.579 95.8261 175.476 95.7233C174.628 95.0295 173.112 94.4384 171.03 93.8731C169.694 93.5133 168.846 93.282 168.537 93.1278C168.229 92.9993 168.075 92.7937 168.075 92.511C168.075 92.0228 168.614 91.7144 169.694 91.5602C172.186 91.2004 173.446 89.6585 173.446 86.9602C173.446 85.6078 173.128 84.5304 172.494 83.7473C172.494 83.7472 172.494 83.7472 172.493 83.7471C172.689 83.7432 172.862 83.6919 173.035 83.5931C173.205 83.5016 173.335 83.3634 173.422 83.2024C174.1 84.2258 174.447 85.4641 174.447 86.9341C174.447 88.3732 174.139 89.5811 173.471 90.5576C174.961 89.9665 175.707 88.7587 175.707 86.9084C175.707 86.2403 175.552 85.5207 175.218 84.8012C175.501 84.8783 175.835 85.0839 176.221 85.3922C176.76 85.8034 177.249 86.009 177.608 86.009C178.148 86.009 178.636 85.7263 179.047 85.1867L178.919 85.0325C178.688 85.1867 178.405 85.2637 178.097 85.2637C177.66 85.2637 177.197 85.1096 176.735 84.8012C176.118 84.39 175.655 84.1587 175.373 84.1587C175.27 84.1587 175.116 84.2101 174.91 84.2872L174.859 84.1844C175.167 83.7218 175.578 83.4906 176.118 83.4906C176.4 83.4906 176.812 83.6191 177.326 83.9017H177.351C177.891 84.1844 178.354 84.3386 178.713 84.3386C179.459 84.3386 179.87 83.7218 179.998 82.4626L179.613 82.3855C179.407 82.9766 179.124 83.285 178.739 83.285C178.508 83.285 178.122 83.1565 177.608 82.8738C177.12 82.5911 176.683 82.4626 176.349 82.4626C175.707 82.4626 175.064 82.8481 174.447 83.6448C174.236 83.3751 173.923 83.1488 173.52 82.9441C173.539 82.8622 173.549 82.7779 173.549 82.6937V80.7663C173.549 80.4065 173.343 80.0725 173.035 79.8669C172.726 79.6613 172.341 79.6613 172.007 79.8155L169.437 81.0747L166.893 79.8155C166.559 79.6613 166.173 79.6613 165.865 79.8669C165.531 80.0468 165.351 80.4065 165.351 80.7663V82.6937C165.351 82.8627 165.396 83.0261 165.476 83.1731C164.853 83.4599 164.338 83.9035 163.911 84.5445C163.448 85.2384 163.191 86.035 163.191 86.9602C163.191 87.7054 163.397 88.425 163.782 89.0674C164.168 89.7356 164.682 90.1467 165.299 90.3009C164.708 89.3244 164.425 88.1937 164.425 86.9345H164.451C164.451 85.5606 164.802 84.3272 165.527 83.2568C165.614 83.3879 165.73 83.5029 165.865 83.5931C166.026 83.7002 166.207 83.7585 166.391 83.7643ZM172.469 82.7194L170.491 81.7172L172.521 80.7663L172.469 82.7194ZM166.405 82.668L166.456 80.7149L168.435 81.7172L166.405 82.668ZM167.509 84.1334C166.97 84.7501 166.713 85.6753 166.713 86.9088C166.713 89.2988 167.638 90.4809 169.488 90.4809C170.31 90.4809 170.979 90.1725 171.493 89.5557C171.981 88.939 172.238 88.0652 172.238 86.9088C172.238 85.701 171.981 84.7758 171.467 84.1591C170.927 83.5423 170.31 83.2339 169.514 83.2339C168.717 83.2339 168.049 83.5423 167.509 84.1334Z" fill="#1D1D1B"/>
<path d="M160.006 91.5601C159.903 91.2003 159.852 90.5835 159.852 89.7355V85.8807C159.852 80.4584 154.198 81.8461 151.371 83.2338L151.474 82.4372C151.474 82.4372 150.344 82.5143 149.752 82.5143C148.493 82.5143 146.283 82.3601 146.283 82.3601V82.6171C147.028 82.8226 147.491 83.1567 147.748 83.6193C147.979 84.1076 148.082 84.8528 148.082 85.855V89.5556C148.082 91.0461 147.928 91.9713 147.62 92.3824C147.311 92.7936 146.951 93.0506 146.489 93.2048V93.4875C146.617 93.4875 148.802 93.3333 149.727 93.3333C151.012 93.3333 153.119 93.4875 153.145 93.4875V93.2048C151.963 92.9221 151.371 91.9713 151.371 90.378V84.159C152.759 83.4908 153.839 83.1567 154.635 83.1567C155.38 83.1567 155.92 83.3623 156.203 83.7735C156.485 84.1847 156.614 84.8785 156.614 85.855V90.6606C156.614 91.1746 156.588 92.0484 156.511 93.3076C158.13 93.0763 160.469 93.2819 161.779 93.4104V93.1277C161.342 93.0506 160.957 92.8707 160.623 92.5623C160.289 92.2796 160.083 91.9456 159.98 91.5601H160.006Z" fill="#1D1D1B"/>
<path d="M138.062 82.3088V82.5658C138.756 82.72 139.218 83.0284 139.449 83.4653C139.681 83.9021 139.835 84.596 139.835 85.5468V91.4318C138.601 92.0999 137.573 92.434 136.725 92.434C135.877 92.434 135.312 92.2284 135.004 91.8429C134.721 91.4831 134.592 90.8407 134.592 89.9155V84.1077C134.592 84.1077 134.567 83.1055 134.721 82.4116C133.539 82.5144 132.203 82.5144 129.479 82.3088V82.5658C130.224 82.7714 130.712 83.1055 130.995 83.5681C131.252 84.0306 131.38 84.7759 131.38 85.8295V89.9669C131.38 93.4105 133.539 93.4105 136.34 93.4105C137.394 93.4105 138.576 93.0764 139.861 92.3826C139.861 92.5368 139.861 92.8709 139.835 93.3077C140.118 93.2563 141.197 93.2306 141.557 93.2306C142.713 93.2306 145 93.4105 145 93.4105V93.1278C145 93.1278 143.792 92.691 143.536 92.2027C143.253 91.7144 143.124 90.9435 143.124 89.8899V85.7267C143.124 84.7245 143.253 83.9792 143.536 83.5167C143.818 83.0541 144.306 82.7457 145 82.5658V82.3088C145 82.3088 142.636 82.4887 141.557 82.4887C140.477 82.4887 138.165 82.3345 138.087 82.3088H138.062Z" fill="#1D1D1B"/>
<path d="M126.161 90.0428L120.173 83.4127L124.542 79.9434C126.212 78.6585 127.754 77.8104 129.168 77.4507V77.168C129.168 77.168 127.574 77.3479 126.084 77.3479C124.593 77.3479 122.769 77.168 122.769 77.168V77.4507C123.411 77.7076 123.745 78.0417 123.745 78.4272C123.745 78.9412 123.154 79.6607 121.972 80.5858L117.012 84.5434V81.768C117.012 80.0462 117.141 78.9412 117.398 78.4529C117.629 77.9389 118.143 77.6048 118.888 77.4507V77.168C118.888 77.168 116.807 77.3479 115.239 77.3479C113.671 77.3479 111.59 77.168 111.59 77.168V77.4507C112.309 77.6562 112.772 77.9646 113.029 78.3758C113.286 78.8127 113.414 79.4808 113.414 80.3546V90.3255C113.414 91.9445 112.798 92.8697 111.59 93.1266V93.4093C111.59 93.4093 113.877 93.2294 115.239 93.2294C116.601 93.2294 118.862 93.4093 118.888 93.4093V93.1266C118.169 92.9211 117.68 92.6127 117.423 92.2015C117.141 91.7903 117.012 91.1736 117.012 90.3255V85.0317L124.388 93.2294C124.388 93.2294 128.936 93.2808 130.324 93.4093V93.1266C129.399 93.1009 128.037 92.073 126.212 90.0428H126.161Z" fill="#1D1D1B"/>
<path d="M106.245 90.0428L100.257 83.4127L104.626 79.9434C106.296 78.6585 107.838 77.8104 109.252 77.4507V77.168C109.252 77.168 107.658 77.3479 106.168 77.3479C104.677 77.3479 102.853 77.168 102.853 77.168V77.4507C103.495 77.7076 103.829 78.0417 103.829 78.4272C103.829 78.9412 103.238 79.6607 102.056 80.5858L97.0962 84.5434V81.768C97.0962 80.0462 97.2247 78.9412 97.4817 78.4529C97.7129 77.9389 98.2269 77.6048 98.9722 77.4507V77.168C98.9722 77.168 96.8906 77.3479 95.323 77.3479C93.7554 77.3479 91.6738 77.168 91.6738 77.168V77.4507C92.3934 77.6562 92.856 77.9646 93.1129 78.3758C93.3699 78.8127 93.4984 79.4808 93.4984 80.3546V90.3255C93.4984 91.9445 92.8817 92.8697 91.6738 93.1266V93.4093C91.6738 93.4093 93.961 93.2294 95.323 93.2294C96.685 93.2294 98.9465 93.4093 98.9722 93.4093V93.1266C98.2526 92.9211 97.7643 92.6127 97.5074 92.2015C97.2247 91.7903 97.0962 91.1736 97.0962 90.3255V85.0317L104.472 93.2294C104.472 93.2294 109.02 93.2808 110.408 93.4093V93.1266C109.483 93.1009 108.121 92.073 106.296 90.0428H106.245Z" fill="#1D1D1B"/>
<path fill-rule="evenodd" clip-rule="evenodd" d="M83.6827 93.8217C83.2157 93.696 82.8051 93.5922 82.4555 93.5038C81.8047 93.3393 81.3649 93.2281 81.1642 93.1278C80.8559 92.9994 80.7017 92.7938 80.7017 92.5111C80.7017 92.0228 81.2413 91.7144 82.3207 91.5602C84.8134 91.2005 86.0726 89.6586 86.0726 86.9602C86.0726 85.4697 85.6872 84.3133 84.9162 83.5167C84.1453 82.72 83.1687 82.3088 82.038 82.3088C80.9073 82.3088 79.9821 82.72 79.2112 83.5424C78.4402 84.3647 78.0548 85.4954 78.0548 86.9088C78.0548 89.0675 78.8514 90.4552 80.4447 91.0977C78.6458 91.7915 77.7464 92.691 77.7464 93.796C77.7464 94.6954 78.3888 95.4407 79.648 96.0318H83.2201C83.1088 95.9975 83.0003 95.9632 82.8918 95.929L82.8917 95.9289C82.6747 95.8604 82.4577 95.7919 82.2179 95.7234C80.8045 95.3122 79.9307 94.9524 79.5453 94.644C79.1598 94.3614 78.9799 93.9759 78.9799 93.539C78.9799 92.7938 79.4939 92.2027 80.4961 91.7658C80.0335 92.3312 79.8022 92.7938 79.8022 93.1535C79.8022 93.5133 80.0078 93.796 80.4447 94.0016C80.8559 94.2072 81.8581 94.5413 83.4514 94.9524C84.6335 95.2608 85.5844 95.5949 86.3553 96.0061H88.3598C88.3598 96.0061 88.2056 95.8262 88.1028 95.7234C87.2548 95.0295 85.7643 94.3871 83.6827 93.8217ZM79.3397 86.9088C79.3397 85.6753 79.5967 84.7502 80.1363 84.1334C80.676 83.5424 81.3441 83.234 82.1408 83.234C82.9374 83.234 83.5542 83.5424 84.0939 84.1591C84.6078 84.7759 84.8648 85.701 84.8648 86.9088C84.8648 88.0653 84.6078 88.939 84.1196 89.5558C83.6056 90.1725 82.9374 90.4809 82.1151 90.4809C80.2648 90.4809 79.3397 89.2988 79.3397 86.9088ZM77.0776 86.9345C77.0776 85.4954 77.4631 84.2105 78.2597 83.1054C77.5658 83.3881 77.0005 83.8507 76.5379 84.5445C76.0753 85.2384 75.8184 86.035 75.8184 86.9602C75.8184 87.7054 76.0239 88.425 76.4094 89.0675C76.7949 89.7356 77.3089 90.1468 77.9256 90.301C77.3346 89.3244 77.0519 88.1937 77.0519 86.9345H77.0776ZM88.3336 86.8821C88.3079 88.7324 87.5883 89.9402 86.0978 90.5313C86.766 89.5548 87.0743 88.3469 87.0743 86.9078C87.0743 85.2117 86.6118 83.824 85.7123 82.719C87.7425 83.3101 88.3336 85.9056 88.3336 86.8821Z" fill="#1D1D1B"/>
<path d="M72.5542 90.763V86.1116C72.5542 82.7195 70.2157 82.334 67.6201 82.334C65.0246 82.334 63.7397 83.8502 63.3542 84.4926L63.7397 84.8524C64.6648 83.8502 65.7956 83.3362 67.1319 83.3362C68.0056 83.3362 68.571 83.5418 68.8794 83.9273C69.162 84.3385 69.3162 84.9038 69.3162 85.6234V87.2167C68.9822 87.1139 68.6224 87.0882 68.2883 87.0882C65.4101 87.0111 62.4805 87.7563 62.4805 90.3519C62.4805 92.9474 65.2559 93.41 67.5173 93.41C68.2112 93.41 68.8023 93.153 69.3162 92.6133L69.2648 93.41C70.6782 92.9217 74.3017 93.41 74.3017 93.41V93.1273C73.5565 93.0245 73.0939 92.7932 72.8626 92.4591C72.6313 92.1251 72.5285 91.5597 72.5285 90.763H72.5542ZM69.3162 91.9709C68.8537 92.3049 68.3911 92.4848 67.9028 92.4848C67.3632 92.4848 66.9006 92.2792 66.5151 91.8424C66.1553 91.4312 65.9497 90.9429 65.9497 90.3776C65.9497 89.7351 66.181 89.1954 66.6179 88.6815C67.0548 88.1932 67.6715 87.9619 68.4682 87.9619C68.6995 87.9619 68.9822 87.9619 69.3162 88.0133V91.9452V91.9709Z" fill="#1D1D1B"/>
<path d="M58.4476 92.6309C58.2935 92.0656 58.2164 91.089 58.2164 89.7013L58.2172 80.4836C58.2172 79.5071 58.3457 78.7875 58.6283 78.3249C58.911 77.8624 59.4507 77.5797 60.2216 77.4255V77.1428C60.2216 77.1428 57.6518 77.297 56.444 77.3227C55.2361 77.3227 52.6663 77.1428 52.6663 77.1428V77.4769C53.4116 77.6311 53.9512 77.9395 54.2339 78.402C54.5166 78.8646 54.6451 79.6356 54.6451 80.6892L54.6443 90.5237C54.6443 92.1684 54.4901 93.5047 54.156 94.5583C53.8219 95.612 53.2309 96.5885 52.3828 97.4365C51.5348 98.336 50.4555 99.1069 49.1191 99.7494V100.006C49.7873 99.9036 51.3035 99.3639 51.3806 99.3125C53.7962 98.2589 55.184 96.717 56.0577 95.6891C56.6488 94.9952 57.137 94.5326 57.5482 94.327C57.9594 94.1215 58.4733 94.0444 59.1672 94.0444C58.8074 93.6589 58.5504 93.1706 58.4219 92.6053L58.4476 92.6309Z" fill="#1D1D1B"/>
<path d="M48.8344 92.6309C48.6802 92.0656 48.6031 91.089 48.6031 89.7013L48.6039 80.4836C48.6039 79.5071 48.7324 78.7875 49.0151 78.3249C49.2977 77.8624 49.8374 77.5797 50.6084 77.4255V77.1428C50.6084 77.1428 48.0385 77.297 46.8307 77.3227C45.6229 77.3227 43.053 77.1428 43.053 77.1428V77.4769C43.7983 77.6311 44.338 77.9395 44.6206 78.402C44.9033 78.8646 45.0318 79.6356 45.0318 80.6892L45.031 90.5237C45.031 92.1684 44.8768 93.5047 44.5427 94.5583C44.2087 95.612 43.6176 96.5885 42.7696 97.4365C41.9215 98.336 40.8422 99.1069 39.5059 99.7494V100.006C40.174 99.9036 41.6902 99.3639 41.7673 99.3125C44.183 98.2589 45.5707 96.717 46.4444 95.6891C47.0355 94.9952 47.5237 94.5326 47.9349 94.327C48.3461 94.1215 48.8601 94.0444 49.5539 94.0444C49.1941 93.6589 48.9372 93.1706 48.8087 92.6053L48.8344 92.6309Z" fill="#1D1D1B"/>
</svg>
