<svg width="95" height="61" viewBox="0 0 95 61" fill="none" xmlns="http://www.w3.org/2000/svg">
<path d="M15.0391 40.8789C14.0495 41.6732 13.099 42.3503 12.1875 42.9102C11.2891 43.457 10.4492 43.9062 9.66797 44.2578C8.88672 44.6094 8.17057 44.8633 7.51953 45.0195C6.88151 45.1888 6.32161 45.2734 5.83984 45.2734C5.48828 45.2734 5.21484 45.1823 5.01953 45C4.83724 44.8047 4.70703 44.5378 4.62891 44.1992C4.55078 43.8477 4.50521 43.431 4.49219 42.9492C4.49219 42.4674 4.4987 41.9401 4.51172 41.3672C4.52474 40.8073 4.55078 39.8828 4.58984 38.5938C4.60286 38.0469 4.61589 37.3958 4.62891 36.6406C4.65495 35.8724 4.67448 34.9805 4.6875 33.9648C4.71354 32.9362 4.73958 31.7773 4.76562 30.4883C4.79167 29.1862 4.81771 27.7279 4.84375 26.1133L1.11328 27.793C2.97526 26.543 4.47917 25.5404 5.625 24.7852C6.77083 24.0169 7.65625 23.4245 8.28125 23.0078C9.01042 22.513 9.53125 22.1615 9.84375 21.9531C9.79167 24.2188 9.74609 26.2305 9.70703 27.9883C9.66797 29.7331 9.63542 31.2695 9.60938 32.5977C9.58333 33.9128 9.55729 35.0391 9.53125 35.9766C9.50521 36.9141 9.48568 37.6953 9.47266 38.3203C9.43359 39.8047 9.40755 40.7357 9.39453 41.1133C9.39453 41.3346 9.53125 41.4909 9.80469 41.582C10.0781 41.6732 10.4362 41.7188 10.8789 41.7188C11.2044 41.7188 11.556 41.6992 11.9336 41.6602C12.3242 41.6081 12.7083 41.543 13.0859 41.4648C13.4635 41.3867 13.8216 41.3021 14.1602 41.2109C14.4987 41.1068 14.7917 40.9961 15.0391 40.8789ZM31.1719 40.8789C30.1823 41.6732 29.2318 42.3503 28.3203 42.9102C27.4219 43.457 26.582 43.9062 25.8008 44.2578C25.0195 44.6094 24.3034 44.8633 23.6523 45.0195C23.0143 45.1888 22.4544 45.2734 21.9727 45.2734C21.6211 45.2734 21.3477 45.1823 21.1523 45C20.9701 44.8047 20.8398 44.5378 20.7617 44.1992C20.6836 43.8477 20.638 43.431 20.625 42.9492C20.625 42.4674 20.6315 41.9401 20.6445 41.3672C20.6576 40.8073 20.6836 39.8828 20.7227 38.5938C20.7357 38.0469 20.7487 37.3958 20.7617 36.6406C20.7878 35.8724 20.8073 34.9805 20.8203 33.9648C20.8464 32.9362 20.8724 31.7773 20.8984 30.4883C20.9245 29.1862 20.9505 27.7279 20.9766 26.1133L17.2461 27.793C19.1081 26.543 20.612 25.5404 21.7578 24.7852C22.9036 24.0169 23.7891 23.4245 24.4141 23.0078C25.1432 22.513 25.6641 22.1615 25.9766 21.9531C25.9245 24.2188 25.8789 26.2305 25.8398 27.9883C25.8008 29.7331 25.7682 31.2695 25.7422 32.5977C25.7161 33.9128 25.6901 35.0391 25.6641 35.9766C25.638 36.9141 25.6185 37.6953 25.6055 38.3203C25.5664 39.8047 25.5404 40.7357 25.5273 41.1133C25.5273 41.3346 25.6641 41.4909 25.9375 41.582C26.2109 41.6732 26.569 41.7188 27.0117 41.7188C27.3372 41.7188 27.6888 41.6992 28.0664 41.6602C28.457 41.6081 28.8411 41.543 29.2188 41.4648C29.5964 41.3867 29.9544 41.3021 30.293 41.2109C30.6315 41.1068 30.9245 40.9961 31.1719 40.8789ZM54.668 23.4766C54.4076 23.776 54.1081 24.2188 53.7695 24.8047C53.444 25.3776 53.099 26.0417 52.7344 26.7969C52.3698 27.5521 51.9922 28.3659 51.6016 29.2383C51.224 30.0977 50.8529 30.9635 50.4883 31.8359C50.1367 32.7083 49.7917 33.5547 49.4531 34.375C49.1276 35.1953 48.8411 35.9375 48.5938 36.6016C48.3464 37.2526 48.0534 38.0013 47.7148 38.8477C47.3763 39.694 47.0117 40.5794 46.6211 41.5039C46.2305 42.4154 45.8138 43.3333 45.3711 44.2578C44.9414 45.1693 44.4987 46.0286 44.043 46.8359C43.6003 47.6562 43.1576 48.3854 42.7148 49.0234C42.2852 49.6615 41.8685 50.1497 41.4648 50.4883C40.9831 50.8919 40.4297 51.3216 39.8047 51.7773C39.2578 52.168 38.6068 52.6107 37.8516 53.1055C37.1094 53.6003 36.263 54.1016 35.3125 54.6094C35.8333 54.2188 36.3086 53.7826 36.7383 53.3008C37.181 52.832 37.5586 52.3893 37.8711 51.9727C38.2357 51.4779 38.5677 50.9831 38.8672 50.4883C39.0625 50.1758 39.2773 49.7135 39.5117 49.1016C39.7591 48.5026 40.0195 47.806 40.293 47.0117C40.5794 46.2174 40.8724 45.3516 41.1719 44.4141C41.4714 43.4635 41.7708 42.5 42.0703 41.5234C42.3828 40.5339 42.6888 39.5508 42.9883 38.5742C43.3008 37.5977 43.5938 36.6732 43.8672 35.8008C44.1536 34.9284 44.4206 34.1276 44.668 33.3984C44.9284 32.6693 45.1562 32.0703 45.3516 31.6016C45.5729 31.0807 45.8203 30.5404 46.0938 29.9805C46.3281 29.4987 46.6081 28.9714 46.9336 28.3984C47.2591 27.8255 47.6107 27.2526 47.9883 26.6797C46.8945 26.8099 45.8594 26.901 44.8828 26.9531C43.9062 26.9922 43.0404 27.0247 42.2852 27.0508C41.3997 27.0768 40.5794 27.0833 39.8242 27.0703C38.7565 27.1354 37.7474 27.2266 36.7969 27.3438C36.3932 27.3958 35.9766 27.4544 35.5469 27.5195C35.1302 27.5846 34.7266 27.6562 34.3359 27.7344C33.9583 27.8125 33.6068 27.8971 33.2812 27.9883C32.9557 28.0794 32.6888 28.1771 32.4805 28.2812C33.0534 27.7083 33.5677 27.2201 34.0234 26.8164C34.4792 26.3997 34.8763 26.0612 35.2148 25.8008C35.6055 25.4883 35.957 25.2344 36.2695 25.0391C36.569 24.8438 36.875 24.681 37.1875 24.5508C37.513 24.4076 37.8581 24.2969 38.2227 24.2188C38.6003 24.1276 39.0104 24.0625 39.4531 24.0234C39.9089 23.9844 40.4232 23.9648 40.9961 23.9648C42.168 23.9648 43.2096 23.9844 44.1211 24.0234C45.0456 24.0625 45.9505 24.082 46.8359 24.082C47.6042 24.082 48.3724 24.0755 49.1406 24.0625C49.9219 24.0365 50.6576 23.9974 51.3477 23.9453C52.0508 23.8932 52.6888 23.8346 53.2617 23.7695C53.8346 23.6914 54.3034 23.5938 54.668 23.4766ZM70.3125 40.8789C69.3229 41.6732 68.3724 42.3503 67.4609 42.9102C66.5625 43.457 65.7227 43.9062 64.9414 44.2578C64.1602 44.6094 63.444 44.8633 62.793 45.0195C62.1549 45.1888 61.5951 45.2734 61.1133 45.2734C60.7617 45.2734 60.4883 45.1823 60.293 45C60.1107 44.8047 59.9805 44.5378 59.9023 44.1992C59.8242 43.8477 59.7786 43.431 59.7656 42.9492C59.7656 42.4674 59.7721 41.9401 59.7852 41.3672C59.7982 40.8073 59.8242 39.8828 59.8633 38.5938C59.8763 38.0469 59.8893 37.3958 59.9023 36.6406C59.9284 35.8724 59.9479 34.9805 59.9609 33.9648C59.987 32.9362 60.013 31.7773 60.0391 30.4883C60.0651 29.1862 60.0911 27.7279 60.1172 26.1133L56.3867 27.793C58.2487 26.543 59.7526 25.5404 60.8984 24.7852C62.0443 24.0169 62.9297 23.4245 63.5547 23.0078C64.2839 22.513 64.8047 22.1615 65.1172 21.9531C65.0651 24.2188 65.0195 26.2305 64.9805 27.9883C64.9414 29.7331 64.9089 31.2695 64.8828 32.5977C64.8568 33.9128 64.8307 35.0391 64.8047 35.9766C64.7786 36.9141 64.7591 37.6953 64.7461 38.3203C64.707 39.8047 64.681 40.7357 64.668 41.1133C64.668 41.3346 64.8047 41.4909 65.0781 41.582C65.3516 41.6732 65.7096 41.7188 66.1523 41.7188C66.4779 41.7188 66.8294 41.6992 67.207 41.6602C67.5977 41.6081 67.9818 41.543 68.3594 41.4648C68.737 41.3867 69.0951 41.3021 69.4336 41.2109C69.7721 41.1068 70.0651 40.9961 70.3125 40.8789Z" fill="#292F36"/>
</svg>
